<svg version="1.1" id="Layer_1" xmlns="http://www.w3.org/2000/svg" x="0px" y="0px" width="201px" height="35.6px"
	 viewBox="0 0 201 35.6" style="enable-background:new 0 0 201 35.6;" xml:space="preserve">
	<style type="text/css">
		.st0{fill:#26A8E0;}
		.st1{fill:#21879E;}
	</style>
	<g>
		<rect x="54.5" y="3.5" width="3" height="26.7"/>
		<path d="M66.6,30.2h-2.9V10.5h2.9v3.4c1.3-2.1,3.3-3.8,6.7-3.8c4.8,0,7.5,3.2,7.5,7.9v12.2H78V18.7c0-3.7-2-5.9-5.4-5.9
			c-3.4,0-5.9,2.5-5.9,6.2V30.2z"/>
		<path d="M88.9,30.2H86V10.5h2.9v3.4c1.3-2.1,3.3-3.8,6.7-3.8c4.8,0,7.5,3.2,7.5,7.9v12.2h-2.9V18.7c0-3.7-2-5.9-5.4-5.9
			c-3.4,0-5.9,2.5-5.9,6.2V30.2z"/>
		<path d="M117.3,12.7c-4.3,0-7.2,3.4-7.2,7.7s3.1,7.7,7.3,7.7c4.3,0,7.2-3.4,7.2-7.6C124.6,16.1,121.5,12.7,117.3,12.7 M117.3,30.6
			c-5.9,0-10.2-4.6-10.2-10.2c0-5.6,4.3-10.3,10.3-10.3c5.9,0,10.2,4.6,10.2,10.2C127.6,25.9,123.2,30.6,117.3,30.6"/>
		<polygon points="150,3.5 153.3,3.5 141.8,30.4 139.2,30.4 127.7,3.5 131,3.5 140.5,26.5 		"/>
		<path d="M157.6,10.5h2.9v19.7h-2.9V10.5z M157.4,2.9h3.4v3.2h-3.4V2.9z"/>
		<path d="M170.2,30.2h-2.9V10.5h2.9v3.4c1.3-2.1,3.3-3.8,6.7-3.8c4.8,0,7.5,3.2,7.5,7.9v12.2h-2.9V18.7c0-3.7-2-5.9-5.4-5.9
			c-3.4,0-5.9,2.5-5.9,6.2V30.2z"/>
		<path d="M194.7,24.6c0,2.4,1.3,3.3,3.3,3.3c1,0,1.8-0.2,2.9-0.7v2.5c-1,0.5-2.1,0.8-3.5,0.8c-3.2,0-5.6-1.6-5.6-5.6V13.1H189v-2.6
			h2.7V4.5h2.9v5.9h6.2v2.6h-6.2V24.6z"/>
		<path class="st0" d="M19.2,25.5c-0.7-1.2-1.7-2.1-3-2.7c-1.4,1.9-3.6,3-6,3c-0.6,0-1.3-0.1-1.9-0.2c-0.2-0.1-0.4-0.1-0.6-0.2
			c-0.3,0.6-0.6,1.2-0.8,1.9c-0.9,3.6,1.3,7.2,4.8,8.1c0.5,0.1,1.1,0.2,1.7,0.2c3.1,0,5.7-2.1,6.5-5.1C20.3,28.8,20.1,27,19.2,25.5"/>
		<path class="st0" d="M20.5,2.4c-0.6-0.2-1.2-0.2-1.8-0.2c-3.4,0-6.4,2.3-7.2,5.6c-0.5,1.9-0.2,3.9,0.8,5.6c1,1.7,2.6,2.9,4.6,3.4
			c0.6,0.2,1.2,0.2,1.8,0.2c3.4,0,6.4-2.3,7.2-5.6C26.8,7.4,24.4,3.4,20.5,2.4"/>
		<path class="st0" d="M16.6,17.5c-2.1-0.5-3.9-1.9-5-3.7c-0.4-0.7-0.7-1.5-0.9-2.3c-0.2,0-0.4,0-0.5,0c-3.1,0-5.8,2.1-6.6,5.2
			c-0.9,3.6,1.3,7.4,4.9,8.3c0.6,0.1,1.1,0.2,1.7,0.2c3.1,0,5.8-2.1,6.6-5.2c0.2-0.8,0.3-1.6,0.2-2.4C16.8,17.5,16.7,17.5,16.6,17.5"/>
		<path class="st1" d="M24.6,15.1c-1.5,1.6-3.7,2.6-6,2.6c-0.3,0-0.6,0-0.9-0.1c0.1,0.8,0,1.6-0.2,2.5c-0.2,0.7-0.5,1.4-0.9,2.1
			c1.3,0.6,2.4,1.6,3.2,2.9c0.5,0.8,0.8,1.6,0.9,2.5c0.4,0.1,0.8,0.1,1.2,0.1c3,0,5.6-2,6.4-5C29.1,19.6,27.5,16.4,24.6,15.1"/>
		<path class="st0" d="M31.5,6c-0.6-0.1-1.1-0.2-1.7-0.2c-1.3,0-2.4,0.3-3.5,0.9c0.6,1.5,0.7,3.2,0.3,4.8c-0.3,1.1-0.8,2.1-1.4,3
			c2,1,3.5,2.9,3.9,5c0.2,0,0.5,0,0.7,0c3.2,0,5.9-2.1,6.7-5.2C37.4,10.7,35.1,7,31.5,6"/>
		<path class="st1" d="M10.7,7.6C11.1,6,11.9,4.7,13,3.7c-0.1-0.1-0.1-0.2-0.2-0.3c-0.9-1.6-2.4-2.7-4.2-3.2C8,0.1,7.5,0,6.9,0
			C3.7,0,1,2.1,0.2,5.2C-0.2,7,0,8.8,1,10.4c0.8,1.3,2,2.4,3.4,2.9c1.4-1.6,3.5-2.6,5.7-2.6c0.1,0,0.3,0,0.4,0
			C10.4,9.7,10.5,8.6,10.7,7.6"/>
	</g>
</svg>
